<svg width="155" height="157" viewBox="0 0 155 157" fill="none" xmlns="http://www.w3.org/2000/svg">
<mask id="mask0_9_384" style="mask-type:luminance" maskUnits="userSpaceOnUse" x="0" y="0" width="155" height="157">
<path d="M0.41333 0.114624H154.111V156.552H0.41333V0.114624Z" fill="white"/>
</mask>
<g mask="url(#mask0_9_384)">
<path d="M145.538 135.995C143.58 134.786 141.622 133.458 140.096 131.823C137.872 129.526 136.46 126.766 135.538 123.797C143.101 121.786 149.695 116.797 152.58 109.312C153.736 106.375 154.325 103.203 154.195 100.042C154.044 96.7187 153.148 94.2812 151.169 91.6354C147.439 86.6771 142.564 82.8125 138.184 78.5208C137.023 77.3646 135.752 76.125 134.913 74.7864C134.768 74.5364 134.559 74.1146 134.413 73.8489C131.606 68.3021 131.059 61.5573 133.512 55.7604C133.778 55.1094 132.976 54.5833 132.476 55.0573L131.596 55.75C130.721 56.4427 129.872 57.1875 129.09 58C123.799 63.3229 122.08 69.9635 124.669 77.0781C126.58 82.3489 130.179 86.8177 134.028 90.7916C136.283 93.2916 138.471 94.6562 139.653 96.5416C140.7 98.3385 140.976 100.208 139.846 101.974C139.075 103.141 138.179 103.979 136.955 104.5C135.158 105.245 133.32 105.365 131.361 105.531C126.679 99.5521 116.21 95.8906 110.226 93.375C108.21 92.5729 106.403 91.7344 104.528 90.6875C99.3926 87.8177 94.4759 84.4583 89.7624 80.9219C89.6165 80.8125 89.4707 80.7031 89.3301 80.5885C90.8926 77.0937 92.304 73.4062 93.4759 69.6146C93.929 69.1198 94.4082 68.6406 94.9186 68.2031C96.6582 66.6771 98.7311 65.5312 100.84 64.6562C104.054 63.3489 107.538 62.8906 110.997 63.2083C111.002 63.2187 111.012 63.2292 111.018 63.2396C113.231 66.5 115.476 69.7292 117.846 72.8854C118.033 73.2031 118.434 73.3281 118.762 73.1302C119.064 72.9427 119.158 72.5417 118.971 72.2396C117.283 68.4167 115.528 64.6354 113.736 60.8646C113.788 59.7239 113.887 58.5885 114.007 57.4583C114.117 56.7969 114.205 55.9792 114.387 55.3333C115.023 52.5469 118.143 44.25 126.544 39.4896C131.044 41.7292 135.58 43.9062 140.137 46.0364C140.913 46.4531 141.497 45.401 140.83 44.9427C137.611 42.1458 134.294 39.4844 130.95 36.8542C130.887 36.8021 130.82 36.75 130.752 36.7031C130.721 36.5885 130.689 36.4792 130.658 36.3646C130.012 34.0208 129.59 31.5312 129.518 29.1094C129.294 20.9323 132.518 12.4896 138.929 7.21873C139.106 7.13019 139.283 7.04165 139.455 6.95311C141.247 6.02082 142.992 4.98957 144.606 3.76561C145.2 3.27603 144.658 2.4479 144.028 2.64582C137.096 3.86978 130.163 4.88019 123.169 5.45311C113.82 6.31248 104.533 5.79686 95.1634 5.38019C93.3509 5.35415 91.3613 5.36457 89.5696 5.89582L89.0853 6.05207C88.8509 6.1354 88.6113 6.26561 88.3717 6.36457C88.3144 6.39061 88.2311 6.43748 88.1426 6.49478C87.2207 6.27603 86.2207 6.23957 85.2259 6.37498C84.8717 6.12498 84.5124 5.8854 84.1478 5.65623C81.054 3.68228 77.6165 2.21353 73.9915 1.59373C73.304 1.47394 72.5644 1.39061 71.8665 1.33853C71.7728 1.33332 71.6217 1.31769 71.5228 1.31769C70.9551 1.26561 70.1999 1.49478 69.7207 1.70311C70.0696 2.33332 70.528 3.04165 71.0957 3.52082L71.5071 3.89061C72.5332 4.81248 75.2936 7.28123 76.3613 8.22915C76.7259 8.56248 77.0905 8.89061 77.4603 9.22394C76.8717 9.1979 76.2884 9.18228 75.7051 9.17186C72.2051 9.15623 68.6999 9.28124 65.2415 9.83332C65.1634 9.71353 65.0801 9.60415 64.9915 9.48957C63.5071 7.54165 60.778 7.66665 58.8092 8.7604C56.0436 6.62498 52.2415 4.15103 52.028 0.942692C52.0332 0.677066 51.9551 0.406234 51.6999 0.270817C51.3978 0.109359 51.0176 0.213525 50.8561 0.515609C50.3769 1.20832 50.1113 1.97394 49.9551 2.72915C49.5176 4.9479 49.8144 7.20832 50.3196 9.38019C50.7988 11.1979 51.5176 13.3229 52.6686 15.0364C52.5384 15.3281 52.429 15.6302 52.3353 15.9375C51.9655 17.1562 51.9863 18.6771 52.8717 19.7239C53.4811 20.4271 54.2676 20.9479 55.1321 21.2552C55.2103 21.6823 55.278 22.125 55.3249 22.5521C55.4551 23.6927 55.4915 24.8437 55.429 25.9896C54.903 25.8281 54.3717 25.6823 53.8405 25.5521C53.9967 22.5104 53.1738 19.2552 50.8144 17.1823C47.7155 14.4114 43.5592 13.3281 39.6686 12.2969C35.4811 11.1823 31.0124 9.97394 28.9238 5.83332C27.9759 3.94269 28.1582 2.70832 27.3926 2.8229C26.8405 2.89061 26.6582 3.29686 26.5957 3.45832C26.0801 4.68748 25.7936 5.99998 25.6165 7.31248C25.2103 10.526 25.4655 14.1198 27.653 16.7604C28.3561 17.5885 29.2363 18.2708 30.0436 18.9583C31.0905 19.8281 32.1269 20.6667 33.0957 21.5312C34.4655 22.7812 35.7884 24.0312 36.5488 25.6302C35.0436 25.6458 33.5384 25.7812 32.054 26.0208C26.8978 26.8385 21.9186 28.7708 17.6009 31.7448C17.1269 30.6562 16.8301 29.4896 16.7467 28.2917C16.6269 26.8594 16.7884 25.3489 17.0749 23.9062C17.1686 23.4948 17.3301 22.7812 17.429 22.3802C17.5071 21.9583 17.5644 21.5156 17.5853 21.0885C17.8717 15.7083 12.5696 10.7656 7.22589 11.8125C6.76756 11.8385 6.51235 12.375 6.75193 12.7552C8.44985 16.1146 8.75714 18.8073 7.08527 22.2708C6.24673 24.2135 4.33006 26.526 3.87693 27.1458C2.90298 28.5729 2.15298 30.151 1.69985 31.8229C-0.3314 39.1354 3.2936 46.7552 11.0436 48.3333C11.6374 48.4375 12.3457 48.5469 12.9499 48.5781C13.179 48.6042 13.4655 48.6094 13.7467 48.6146C14.4655 52.2239 14.8613 55.9635 13.3249 59.3385C13.1009 59.8177 12.8301 60.2708 12.5228 60.6979C11.5488 62.1302 10.4394 63.6562 9.4811 65.0989C6.98631 68.8021 5.28318 72.0833 7.07485 76.5885C8.42381 80.3229 11.5071 82.9739 15.6946 81.9219C16.2155 81.7917 16.7207 81.6146 17.2103 81.375C17.5332 81.7656 17.7519 82.2187 17.9238 82.7031C17.1842 82.8906 16.7415 83.7448 17.0644 84.4635L17.1321 84.6198L18.9186 88.3177C19.1634 88.8177 19.6946 89.151 20.2832 89.1041C22.3092 88.9427 24.3196 88.7448 26.3249 88.5052C25.3613 90 24.3353 91.4739 23.3144 92.9948C19.7311 98.1771 16.8926 104.214 16.2936 110.604C15.9759 113.411 16.0592 116.276 16.2884 119.083C16.6217 123.849 17.0957 128.615 17.6686 133.354C18.2676 138.401 19.0488 143.443 19.6269 148.479C17.9915 149.229 16.8613 150.937 16.778 152.807C16.5436 154.333 17.6061 155.844 19.1113 156.187C19.3249 156.24 19.5696 156.266 19.7936 156.276C22.8613 156.443 25.929 156.557 29.0019 156.479C30.4915 156.448 31.9811 156.396 33.4655 156.323L34.6321 156.271C36.0853 156.229 37.403 155.057 37.5749 153.615C37.6061 153.411 37.6165 153.198 37.5957 153C37.5644 152.766 37.5644 152.432 37.4915 152.208C37.179 150.568 36.0853 149.104 34.6217 148.318C34.7624 147.812 34.8821 147.307 34.9967 146.802C36.1217 141.417 36.3405 135.875 35.9082 130.401C36.5853 130.458 37.2832 130.49 38.0071 130.49C38.7676 130.49 39.528 130.464 40.2832 130.401C40.2155 132.5 40.2519 134.604 40.3769 136.703C40.6374 140.693 41.1165 144.656 42.0384 148.547C40.6894 149.219 39.6946 150.557 39.4238 152.052C39.3613 152.391 39.3353 152.786 39.2988 153.13C39.2728 154.042 39.679 154.958 40.3821 155.542C40.8821 155.964 41.5384 156.229 42.1946 156.266L42.3405 156.276L42.6217 156.292C44.1113 156.365 45.6009 156.432 47.0853 156.458C50.0644 156.51 53.0384 156.406 56.0176 156.312L57.179 156.271C57.6634 156.25 58.1426 156.083 58.528 155.812C59.3926 155.187 59.7676 154.109 59.7155 153.099C59.6582 152.464 59.5176 151.807 59.2467 151.229C58.7832 150.182 57.9707 149.292 56.9759 148.724C57.554 145.953 58.1634 143.219 58.9082 140.531C59.3978 138.812 59.929 137.089 60.5384 135.391C61.8561 135.812 63.2311 136.224 64.4915 136.599C70.0696 138.203 75.7363 139.536 81.4707 140.5C84.778 141.078 88.1374 141.38 91.4967 141.521C92.0696 141.943 92.6686 142.333 93.2832 142.682C94.5488 143.391 95.8978 143.953 97.2519 144.427C98.5957 144.911 100.028 145.302 101.304 145.839C101.575 145.958 101.95 146.141 102.2 146.333C101.825 146.76 101.445 147.208 101.096 147.667C100.163 148.849 99.5071 150.458 99.2988 151.896C99.1634 152.75 99.0957 153.542 99.0644 154.344C99.0644 155.417 99.9394 156.286 101.012 156.276C101.023 156.271 116.986 156.286 116.992 156.276C117.986 156.276 118.83 155.51 118.913 154.505C118.908 150.745 118.075 146.958 116.356 143.604C115.715 142.349 114.908 141.167 113.965 140.115C115.486 139.719 117.002 139.219 118.492 138.573C119.158 138.859 119.82 139.135 120.481 139.396C124.158 140.901 127.95 142.542 131.518 144.182C133.075 144.937 134.585 145.599 135.929 146.542C135.809 146.698 135.684 146.854 135.564 147.016C133.736 149.344 133.361 151.661 133.382 154.5C133.429 155.526 134.299 156.323 135.33 156.281H151.294C152.294 156.286 153.148 155.516 153.236 154.5C153.247 154.375 153.268 154.13 153.273 154.005C153.544 148.198 152.007 141.995 147.726 137.786C147.064 137.13 146.314 136.521 145.544 136L145.538 135.995ZM143.71 105.401C146.492 101.99 146.398 97.4687 144.122 93.8333C142.679 91.4062 140.064 89.8333 138.231 88.0052C132.398 82.6198 125.403 75.1562 127.09 66.5781C127.679 63.6458 129.122 61.0937 130.95 58.7552C130.299 61 130.002 63.3542 130.059 65.6979C130.143 69.2656 131.023 72.8229 132.575 76.0364C133.064 76.9844 133.674 77.8021 134.273 78.5573C135.934 80.6198 137.783 82.5156 139.575 84.4167C140.929 85.8489 142.294 87.2916 143.601 88.7656C145.2 90.6562 148.044 95.2135 148.684 97.6302C149.325 100.068 149.486 112.396 138.679 114.406C136.695 114.771 135.163 115.057 133.997 115.276C133.882 113.974 133.794 112.677 133.721 111.406C133.695 110.979 133.643 110.505 133.554 110.083C133.528 109.964 133.502 109.844 133.471 109.724C136.169 109.771 140.564 109.495 143.71 105.396V105.401ZM94.6009 65.6042C96.8665 56.7344 97.653 47.4792 95.7519 38.9219C96.5957 40.4062 97.4499 41.8802 98.3144 43.3489C101.851 49.2864 105.57 55.1042 109.408 60.8542C104.106 60.2396 98.5071 61.9427 94.6009 65.6042ZM115.044 46.375C113.148 49.5521 112.226 53.1979 112.064 57.3958C106.122 45.2031 100.195 32.9792 93.2415 21.3229C94.4499 22.0781 95.6634 22.8125 96.8821 23.5417C105.773 28.7396 114.846 33.6146 124.044 38.2448C118.07 41.0625 115.34 45.8958 115.044 46.375ZM127.34 34.0729C118.971 27.651 110.445 21.4375 101.559 15.7344C109.684 15.4375 117.747 14.1302 125.611 12.0885C128.038 11.4375 130.455 10.6979 132.83 9.82811C126.814 16.3177 124.58 25.7083 127.34 34.0729ZM77.4186 6.99998C76.3457 6.11457 73.5436 3.79165 72.4551 2.89061C73.2363 3.04165 74.0228 3.23436 74.7415 3.46873C78.9134 4.8229 82.7467 7.31248 85.7676 10.4687C85.7624 10.5625 85.7363 10.6667 85.7051 10.776C85.3978 11.75 84.4915 12.6146 83.4551 12.7864C83.1113 12.2812 82.7259 11.8489 82.3405 11.4271C80.929 9.90623 78.8249 8.18228 77.4186 6.99998ZM85.2051 32.7448C84.3874 31.6146 83.528 30.5156 82.6426 29.4479C82.6061 29.3333 82.5749 29.2135 82.5436 29.0989C82.0644 27.5521 81.7051 25.9375 81.5644 24.3229C81.6321 24.5104 81.7051 24.6979 81.778 24.8854C82.0853 25.6458 82.4394 26.3906 82.8926 27.1094L82.8249 27.0104C90.0071 41.4844 89.0176 54.8698 82.7051 69.4271C82.304 70.3802 81.8613 71.3594 81.4082 72.3281C79.0488 68.6042 76.8249 64.9271 75.6009 60.9375C75.5384 60.7448 75.3874 60.276 75.3353 60.0781C73.5124 54.3489 72.9915 48.2708 71.2363 42.5052C72.4186 41.9167 73.679 41.4844 74.9759 41.2187C75.2676 41.4583 75.554 41.6927 75.8509 41.9271C76.6426 42.5417 77.4499 43.1458 78.2988 43.7031C78.5019 43.8542 78.7728 43.8854 79.0071 43.7604C79.3301 43.5885 79.4551 43.1875 79.2832 42.8646C78.5071 41.4271 77.6894 40.0104 76.8509 38.6146C76.8249 38.1979 76.8353 37.7812 76.8509 37.3646C76.8717 37.2292 76.8874 37.0833 76.9134 36.9479C77.0696 36.1458 77.554 35.4271 77.9603 34.8073C78.4499 34.0156 79.0957 33.3021 79.8509 32.7448C80.1946 32.4948 80.554 32.2656 80.9238 32.0521C82.0905 32.6354 83.2624 33.2031 84.4342 33.7708C85.0749 34.0625 85.653 33.2812 85.2103 32.7448H85.2051ZM72.8144 39.4167C72.4655 39.4792 72.1165 39.5469 71.7728 39.625C71.304 39.7396 70.8405 39.8646 70.3769 40.0104C70.2728 39.7396 70.1686 39.4687 70.054 39.1979C69.2051 37.1719 68.1061 35.3333 66.7832 33.6875C68.7155 35.6771 70.7207 37.5989 72.8144 39.4167ZM72.4342 31.6979C70.8405 29.3437 69.2519 26.9687 67.4446 24.7656C70.9759 26.8489 74.5696 28.8125 78.2207 30.6875C76.4394 31.5573 75.0592 33.3021 74.8821 35.2917C74.8769 35.3385 74.8769 35.3854 74.8717 35.4323C74.0749 34.1823 73.2571 32.9375 72.4342 31.6979ZM79.7571 17.2396C79.304 17.9531 79.0124 18.7552 78.8353 19.5729C78.4811 21.4271 78.5176 23.3542 78.8769 25.2135C78.4863 24.7969 78.1009 24.3854 77.7051 23.9739C75.7103 21.8958 73.6269 19.8958 71.3874 18.0781C70.9394 17.7135 70.4811 17.3542 70.0124 17.0104L79.3144 13.9739C79.1374 15.1406 79.2571 16.2969 79.7571 17.2396ZM51.0696 3.60415C51.4759 4.70832 52.153 5.73436 52.8769 6.62498C54.528 8.6979 56.5592 10.151 58.3405 11.9375C59.1634 12.8437 58.4499 14.1406 57.7415 14.9271C57.5644 15.1146 56.3926 15.8906 55.7571 15.5364C52.9186 13.9583 50.5332 7.67707 51.0696 3.60415ZM54.6009 18.2864C54.5176 17.9375 54.5905 17.5521 54.7363 17.1875C54.7571 17.2031 54.778 17.2135 54.7988 17.2292C55.8978 17.8958 57.304 18.5677 58.6165 17.9375C59.8509 17.401 60.6426 16.2396 61.1686 15.026C61.5853 14.0781 61.6946 13 61.4551 12.0104C61.2728 11.2552 62.2051 10.7396 62.7155 11.3229C62.7207 11.3281 62.7311 11.3385 62.7363 11.3437C63.8874 12.5729 63.9915 13.901 63.5592 15.4687C63.4915 15.6979 63.5384 15.9479 63.7103 16.1302C63.9603 16.4062 64.4134 16.3906 64.6894 16.1406C65.0905 15.7812 65.429 15.3385 65.6894 14.8229C65.9603 14.2917 66.1426 13.6771 66.1842 13.0312C66.2051 12.6979 66.1842 12.3594 66.1321 12.0208C68.0957 12.0521 70.054 11.9323 72.0176 11.7708C74.3978 11.5521 76.7728 11.2708 79.1217 10.776C79.4342 11.0781 79.7415 11.3854 80.0436 11.6979V11.7083L68.3769 16.1719C68.3405 16.1875 68.2988 16.2083 68.2571 16.2344C67.903 16.4635 67.8769 16.9271 68.1321 17.2396C68.6634 18.0625 69.2467 18.8385 69.8405 19.5989C71.6217 21.8646 73.5905 23.9792 75.6321 26.0104C76.554 26.9167 77.4811 27.8177 78.4238 28.6979C75.4707 27.0208 72.4759 25.4062 69.4655 23.8385C67.6946 22.9271 65.9134 22.0417 64.1009 21.2135C63.9394 21.1458 63.7571 21.1354 63.5853 21.2031C63.1999 21.3542 63.0696 21.8073 63.2571 22.1562C64.0957 24.2083 65.1946 26.0937 66.3665 27.9531C67.3092 29.3646 68.2676 30.7604 69.2467 32.1406C66.9082 30.0104 64.4707 28 61.8874 26.1614C61.429 25.8698 60.9238 26.125 60.7884 26.6302C60.6061 27.1302 60.4915 27.6406 60.4186 28.1614C59.3978 27.5417 58.304 27.0312 57.1842 26.6042C57.1842 24.9114 56.9863 23.2187 56.5905 21.5677C57.1634 21.6146 57.7415 21.5729 58.304 21.4271C59.0592 21.2135 58.8769 20.1042 58.0905 20.1458C56.7311 20.2396 55.1894 19.5469 54.5957 18.2864H54.6009ZM33.3196 18.0989C33.6478 17.7656 33.9446 17.4167 34.1999 17.0156C34.3978 16.7083 34.6738 16.1927 34.278 15.8906C34.0436 15.6927 33.6894 15.7292 33.4967 15.9635C33.2311 16.3177 32.7519 16.6719 32.3405 16.9167C32.2207 16.9896 32.0853 17.0625 31.9499 17.1354C31.1894 16.5989 30.4342 16.0573 29.6999 15.4739C27.4134 13.4323 27.0071 9.89582 27.278 6.83853C28.0801 9.23436 29.6478 11.1875 31.7988 12.6979C33.7051 14.0312 35.8874 14.9531 38.0905 15.8021C40.9238 17.3333 48.5436 21.1094 47.0905 27.0833C46.0853 30.7396 44.0644 32.9635 41.6686 32.6771C41.2051 32.4583 40.7676 32.1614 40.3821 31.7656C40.054 31.4375 39.7624 31.0417 39.5019 30.5989C40.1946 29.4531 40.5019 28.2864 40.4655 27.125C42.1999 26.6823 43.9186 25.651 44.7988 24.2344C44.9655 23.9531 44.5853 23.6667 44.3613 23.9062C43.3561 24.9271 41.7103 25.4792 40.1946 25.5208C39.8457 24.3542 39.1582 23.2239 38.179 22.1562C38.0696 22.0312 37.9551 21.9167 37.8405 21.7969C38.7988 20.9271 39.6738 19.7708 39.9915 18.6927C40.1321 18.1458 39.3613 17.8854 39.1321 18.4062C38.7884 19.0573 38.1269 19.6354 37.5176 20.0937C37.2415 20.2969 36.9499 20.4896 36.653 20.6614C35.5957 19.7292 34.4655 18.9062 33.3249 18.1042L33.3196 18.0989ZM11.5592 44.3802C6.76756 43.3125 4.17381 39.1146 4.43943 34.3177C4.55923 32.1146 5.27798 29.9739 6.48631 28.1042C9.14256 24.1406 9.7311 21.651 9.92902 20.3542C10.2467 18.4323 9.98631 16.3698 9.20506 14.5989C8.97589 14.0677 8.71027 13.5625 8.43943 13.0729C10.3144 13.1979 12.0853 14.1927 13.3144 15.625C14.1478 17.0208 14.1634 18.651 13.8405 20.3542C12.9915 20.4531 12.1634 20.7604 11.5853 21.1771C11.278 21.4167 11.6009 21.901 11.9446 21.6979C12.429 21.4531 13.0384 21.3594 13.6113 21.3542C13.2155 22.9062 12.6217 24.4896 12.1634 25.9948C12.0644 26.0208 11.9655 26.0469 11.8665 26.0729C10.7155 26.4323 9.65298 27.0729 9.00714 28.1146C8.78318 28.5156 9.33527 28.8958 9.63214 28.5469C9.9186 28.2083 10.3717 27.9375 10.7884 27.7552C11.1061 27.6094 11.4394 27.5104 11.7728 27.4479C11.6113 28.1719 11.5176 28.8698 11.528 29.5156C11.5384 30.2083 11.6009 30.8958 11.6894 31.5573C10.1217 32.3802 8.88735 33.776 8.45506 35.5729C8.3561 36.0156 8.98631 36.2031 9.14777 35.7864C9.64777 34.5364 10.6478 33.5521 11.8092 33.0208C11.8509 33 11.8926 32.9844 11.9342 32.9635C12.1842 34.1823 12.5071 35.2552 12.778 36.0469C12.3144 36.6927 12.0592 37.5417 11.9915 38.276C11.8509 39.6302 12.0957 40.9792 12.3457 42.276C12.4707 42.9323 12.6738 43.7969 12.8613 44.6042C12.4238 44.5469 11.9863 44.4792 11.5644 44.375L11.5592 44.3802ZM19.903 82.401C19.9342 81.6354 19.7519 80.7917 19.3613 80.0989C19.5071 80.026 19.6582 79.9531 19.8144 79.901C20.7571 79.5781 21.903 79.5885 22.9238 79.625C24.5853 79.6406 26.2311 79.2969 27.7571 78.6562C29.9134 77.776 32.0905 76.0052 32.6113 73.5833L32.8249 72.7187C33.1946 71.1823 33.8249 69.7239 34.5436 68.3229C36.7051 64.3385 38.7936 61.3281 38.2311 56.8229C38.5488 56.8594 38.8665 56.901 39.1842 56.9583C40.9759 57.2552 42.7467 57.7344 44.429 58.4271C44.2363 60.4635 43.7415 62.5469 43.1009 64.4896C43.0071 64.8333 42.7936 65.3594 42.6738 65.6927C42.4342 66.401 41.9915 67.375 41.6946 68.0729C41.3874 68.7396 41.028 69.4427 40.7051 70.1042C40.5853 70.2917 40.0384 71.3073 39.9082 71.5208C39.5592 72.1823 38.9394 73.0937 38.5436 73.7396C38.0749 74.4792 37.5124 75.1458 37.0957 75.9271C36.5749 76.8385 35.8665 77.9739 35.2832 78.6042C34.8301 78.8802 34.2728 79.0781 33.7728 79.2604C32.1113 79.8281 30.3665 80.2708 28.6478 80.6823C25.7624 81.3489 22.8405 81.9375 19.9082 82.4062L19.903 82.401ZM20.2832 152.349C20.2832 152.333 20.2832 152.312 20.2832 152.297C20.2676 151.396 20.8196 150.516 21.5905 150.057C21.929 149.833 22.3301 149.708 22.7155 149.604C23.0592 149.495 23.2207 149.167 23.1842 148.865V148.859C23.179 148.823 23.1686 148.781 23.1582 148.745C23.0176 148.042 22.304 143.99 20.9186 128.984L20.0905 116.797C19.9342 114.203 19.9967 111.615 20.3665 109.073C20.7311 106.521 21.3926 104.031 22.3301 101.62C24.0749 96.9791 26.9134 92.7969 28.903 88.1666C29.6686 88.0573 30.4394 87.9375 31.2103 87.8125C26.1374 95.1302 21.4082 105.005 21.4238 113.818C21.5332 118.812 22.9394 122.859 25.5384 125.719C27.8613 128.307 31.3613 133.958 31.3092 138.453C31.2624 142.943 28.9707 147.734 27.7259 148.302C27.028 148.443 27.0176 149.458 27.7259 149.604C29.0176 149.854 30.3196 150.031 31.6217 150.203C32.7259 150.385 33.6582 151.281 33.8821 152.349C29.3509 152.115 24.8092 152.089 20.2832 152.349ZM40.8769 123.833C40.7155 124.839 40.5853 125.854 40.4915 126.865C40.4603 127.198 40.4342 127.526 40.4134 127.854C33.903 125.844 29.0228 124.391 27.1894 118.083C28.054 117.604 29.1061 117.255 29.8301 117.073C31.5019 116.661 33.3561 116.542 34.9759 117.146C35.278 117.266 35.6321 117.151 35.7936 116.859C35.9655 116.547 35.8509 116.151 35.5384 115.974C32.8769 114.557 29.4967 114.693 26.6634 115.578C26.6113 115.219 26.5696 114.849 26.5332 114.464C26.3144 111.865 26.6686 108.891 27.3717 105.797C28.3144 105.448 29.3144 105.214 30.2728 105.047C31.7988 104.818 33.554 104.719 34.903 105.484C35.5905 105.87 36.2467 104.932 35.6374 104.422C33.903 103.005 30.8144 102.729 28.0749 103.062C28.9655 99.9166 30.1426 96.7291 31.3874 93.7552C31.4967 93.7083 31.6009 93.6614 31.6999 93.6198C33.7832 92.7916 36.1009 92.3021 38.3509 92.375C39.2467 92.4114 40.1374 92.5573 40.929 92.901C41.2207 93.0364 41.5801 92.9323 41.7519 92.651C41.9394 92.3437 41.8457 91.9427 41.5384 91.7552C38.9551 90.25 35.6269 90.2708 32.7311 90.6666C33.2832 89.4583 33.8301 88.3073 34.3561 87.2344C35.4759 87 36.5801 86.7291 37.6946 86.3646C38.5124 86.0937 39.3457 85.7656 40.0749 85.2812C44.429 82.401 51.804 83.2135 49.554 87.6875C48.7832 89.1875 48.028 90.6823 47.304 92.1666C42.8196 101.495 37.4603 113.391 40.8821 123.833H40.8769ZM103.158 152.38C103.45 150.578 104.658 149.453 105.825 148.099C106.148 147.745 106.335 147.281 106.304 146.771C106.242 145.531 105.57 144.302 104.538 143.625C103.825 143.141 103.038 142.854 102.236 142.646C105.163 142.656 113.955 145.094 113.481 152.38H103.158ZM137.585 152.38C137.986 150.63 139.231 149.641 140.429 148.344C140.679 148.089 140.856 147.745 140.898 147.359C140.934 146.823 141.023 146.661 140.965 146C140.825 144.167 139.262 142.771 137.867 141.802C136.58 140.901 135.252 140.156 133.887 139.432C129.585 137.182 125.205 135.255 120.715 133.495C116.549 131.745 112.45 129.724 108.846 127.031C106.372 125.182 104.085 122.964 102.45 120.344C100.018 116.635 99.2467 112.089 99.3196 107.635C99.3144 106.255 99.3926 104.891 99.2884 103.484C99.1999 102.62 97.9811 102.604 97.8457 103.453C97.2884 106.505 96.4915 109.562 96.5228 112.724C96.5124 114.745 96.7832 116.786 97.3405 118.734C97.9655 120.901 98.9134 122.891 100.101 124.719H100.096C100.096 124.719 101.58 127.839 98.9499 129.802C95.2207 132.479 79.4967 126.792 76.3926 123.443C73.2832 120.099 74.8144 116.849 77.4551 112.297L77.4499 112.302C79.7519 108.88 81.6738 105.182 82.7103 101.161C84.3769 94.9583 83.5592 88.1354 79.1842 83.2239C78.9186 82.9114 78.6217 82.625 78.3353 82.3385C78.1478 82.1458 77.8561 82.0833 77.6009 82.2031C77.2676 82.3542 77.1217 82.7448 77.2728 83.0729C85.0176 101.193 60.3196 112.521 56.1217 140.099C56.1165 140.099 56.1113 140.089 56.1061 140.083C54.804 145.542 51.0332 148.172 50.2832 148.182C49.2624 148.214 49.2624 149.698 50.2832 149.729C51.5749 149.74 52.8874 149.792 54.179 149.865C55.4238 149.948 56.6061 150.901 56.8561 152.12C56.8769 152.203 56.8978 152.292 56.9082 152.38L56.0124 152.349C51.6217 152.182 47.2259 152.104 42.8353 152.354C42.8353 152.333 42.8353 152.318 42.8353 152.302C42.8144 151.401 43.3717 150.521 44.1426 150.057C44.4811 149.839 44.8769 149.714 45.2676 149.604C45.8926 149.417 45.903 148.5 45.2676 148.307C44.3769 147.88 43.9446 145.823 43.7363 144.062C43.1999 137.255 43.1165 130.422 43.3717 123.609C43.0436 121.901 42.9134 120.167 42.9915 118.427C43.5176 109.792 47.6478 101.911 51.4394 94.2291C55.4603 86.1875 59.9603 78.2864 62.554 69.6146C64.9915 61.4792 64.8613 53.0208 58.1842 47.3437C57.6634 46.8385 57.1009 46.3802 56.5019 45.9635C55.8561 45.5156 55.2051 45.1302 54.4707 44.8333C54.1061 44.6927 53.7884 44.8489 53.6426 45.0989C53.4759 45.3802 53.5592 45.7448 53.8092 45.9531C53.8457 45.9792 53.8769 46.0052 53.9134 46.0364C54.3821 46.4635 54.8561 46.9167 55.2728 47.3854C57.7728 50.0989 59.4342 53.6042 59.5176 57.3073C59.5957 63.5052 47.6686 74.4167 43.0176 78.5625C41.554 79.8385 40.0801 81.0937 38.5592 82.2864C38.4186 82.401 38.2051 82.5521 38.0644 82.6406C37.0176 83.2083 35.8821 83.4948 34.7103 83.8021C32.6738 84.3125 30.6009 84.6927 28.5124 85.0364C26.0332 85.4479 23.5124 85.7969 21.0071 86.1094C20.8092 85.7344 20.5749 85.2969 20.3509 84.8802C23.278 84.1146 26.2051 83.3906 29.1321 82.6042C31.403 81.9635 33.7415 81.4427 35.9394 80.4427C36.2207 80.2917 36.5228 80.1146 36.7363 79.875C37.778 78.6927 39.153 77.8333 40.1374 76.5937C43.4394 72.6094 46.0696 68.0156 47.4863 63.0104C47.9707 61.2344 48.3301 59.4219 48.3926 57.5729C48.4915 56.5937 48.0384 55.6302 47.0124 55.3333C46.2103 55.0885 45.3874 54.901 44.5696 54.7448C42.0124 54.2656 39.3926 54.1354 36.8092 54.3958C36.1269 54.3906 35.5749 55.0052 35.6999 55.6875C35.6738 56.8177 35.6374 57.901 35.4394 58.9271C35.028 61.1354 33.8821 62.9948 32.9394 65.0989C32.5644 65.9531 32.2155 66.8281 31.9394 67.7187C31.5436 68.9062 31.2624 70.125 30.9759 71.3385C30.8769 71.8437 30.7207 72.6406 30.6061 73.1302C29.9186 76 26.4446 77.0937 23.8092 77.1562C23.2571 77.1771 22.6686 77.0885 22.1113 77.0677C20.7624 76.9948 19.2207 77.125 17.9707 77.7708C17.3926 78.0573 16.903 78.3854 16.3665 78.6562C15.5905 79.0625 14.5853 79.2604 13.7259 79.1458C11.8405 78.9219 10.8196 77.1146 10.2624 75.4323C9.78318 74.0469 9.61652 72.6667 10.0905 71.276C10.6113 69.7292 11.4863 68.3646 12.3249 66.8698C12.9186 65.8437 13.5071 64.7864 14.0696 63.7135C14.5019 62.8854 14.9551 62.0521 15.3249 61.1927C16.4655 58.4792 16.4655 55.4948 16.2676 52.6562C16.0853 50.1927 15.6894 47.7969 15.3561 45.4271C15.0957 43.4219 14.7624 41.4427 14.9342 39.4583C14.9707 39.0312 15.0749 38.6042 15.2467 38.2708C15.3613 38.0625 15.8821 37.7083 16.0488 37.5781C21.4603 33.3177 29.9707 30.5989 36.2571 28.5885C36.1217 28.7656 35.9707 28.9427 35.7936 29.1146C35.2988 29.6302 35.1217 30.4062 35.4082 31.1094C37.8769 36.9635 42.9915 37.9219 48.6478 36.4219C49.0488 36.3854 49.3769 36.1094 49.6426 35.8073C49.9499 35.5 50.2415 35.1667 50.5071 34.8229C51.7207 33.2135 52.5853 31.401 53.1426 29.4844C54.6165 29.9114 56.0384 30.4531 57.3717 31.1354C57.7103 31.3177 58.1113 31.5208 58.4238 31.7396C60.8978 33.3385 63.1269 35.3594 64.7155 37.8437C67.9811 42.9167 68.653 48.9896 70.1582 54.7656C70.6894 56.9062 71.2988 59.0677 72.0228 61.1614C72.4446 62.3646 72.9134 63.6406 73.4863 64.776C75.2415 68.276 77.7259 71.375 80.6321 73.9687C80.5124 74.2292 80.3874 74.4844 80.2676 74.7396C79.903 75.4583 79.5019 76.2864 79.153 77.0104C79.0176 77.276 79.0801 77.6146 79.3249 77.8073C79.6061 78.0364 80.0176 77.9948 80.2415 77.7135C89.5801 66.3542 94.7103 50.3854 89.8926 35.9948C88.7363 32.3489 86.9863 28.8594 84.8978 25.6823C83.5592 24.0156 82.2259 21.3385 81.804 19.0312C82.1113 19.1458 82.4446 19.2448 82.804 19.3073C83.8249 19.4792 84.8249 19.3854 85.804 19.1094L85.903 19.0781C86.2728 19 86.5384 18.651 86.4394 18.2708C86.3561 17.9219 86.0071 17.7083 85.6582 17.7969C85.5488 17.8229 85.4238 17.8594 85.3092 17.8802C84.2155 18.0885 82.9551 18.0469 82.0124 17.4219C80.6582 16.5364 80.804 14.6979 81.4238 13.2448C81.6842 13.5781 81.9134 13.9167 82.0853 14.25C82.2259 14.526 82.5019 14.7291 82.8353 14.7604C85.0176 15.1146 87.1894 13.7917 88.1686 11.8385C88.4551 11.2656 88.5696 10.7552 88.5905 10.3281C88.6269 9.56769 89.5957 9.24478 90.0436 9.86457L90.054 9.8854C90.3874 10.3698 90.5436 10.9844 90.6113 11.5885C90.6321 11.9062 90.8874 12.1771 91.2259 12.1979C91.5801 12.2187 91.8874 11.9479 91.9082 11.5885C92.0592 9.97394 91.5905 8.74998 90.7519 7.8854C92.1478 7.71873 93.6478 7.86457 95.0436 7.95832C102.658 8.72394 110.439 9.17186 118.101 8.55728C122.21 8.2604 126.408 7.73957 130.471 7.03644C132.445 6.69269 134.413 6.30728 136.367 5.8854C134.413 6.57811 132.434 7.20832 130.445 7.78644C120.257 10.7239 109.804 12.5677 99.3821 14.4948C98.8092 14.4792 98.5332 15.2291 98.9655 15.5937C102.205 18.4219 105.549 21.1094 108.919 23.7604C114.111 27.7917 119.356 31.7552 124.7 35.5781C121.986 34.0729 119.262 32.5781 116.533 31.0989C108.356 26.6927 100.117 22.3646 91.5696 18.7135C91.0592 18.375 90.4134 18.9114 90.6374 19.4739C94.3196 28.4844 98.7051 37.1771 103.163 45.8229C100.127 41.1927 96.9603 36.6458 93.6009 32.2344C93.1478 31.6667 92.2467 32.1719 92.5071 32.8646C94.1894 41.7864 93.5749 50.7969 91.9082 59.6458C90.4707 67.4375 88.1999 75.1146 86.0592 82.7656C85.7519 83.8802 85.4499 84.9948 85.1999 86.1406C85.1374 86.4271 85.2676 86.7239 85.5384 86.8646C85.8613 87.0312 86.2571 86.901 86.4238 86.5781C87.1946 85.1146 87.9446 83.5937 88.6738 82.0364C91.3874 84.8125 94.3144 87.3646 97.3926 89.7344C99.1478 91.0833 100.96 92.3646 102.83 93.5573C106.492 95.9479 110.762 97.5833 114.71 99.3958C115.637 99.8333 116.674 100.312 117.757 100.844C121.361 102.745 127.32 107.641 127.502 113.531C127.679 119.427 127.872 129.943 136.283 135.583C144.695 141.219 145.752 142.844 146.179 144.995C146.606 147.151 146.752 152.38 146.752 152.38H137.585Z" fill="black"/>
</g>
</svg>
