<svg width="146" height="148" viewBox="0 0 146 148" fill="none" xmlns="http://www.w3.org/2000/svg">
<mask id="mask0_9_298" style="mask-type:luminance" maskUnits="userSpaceOnUse" x="0" y="0" width="146" height="148">
<path d="M0.026123 0.84375H145.589V147.401H0.026123V0.84375Z" fill="white"/>
</mask>
<g mask="url(#mask0_9_298)">
<path d="M145.302 73.5051C145.302 72.1614 145.266 70.8229 145.193 69.4843C145.115 68.151 145.005 66.8124 144.854 65.4843C144.708 64.151 144.521 62.8229 144.302 61.5051C144.078 60.1822 143.818 58.8697 143.526 57.5624C143.229 56.2551 142.901 54.9583 142.531 53.6666C142.167 52.3801 141.766 51.0989 141.328 49.8333C140.891 48.5676 140.417 47.3124 139.911 46.0729C139.406 44.8333 138.865 43.6093 138.292 42.3958C137.719 41.1874 137.109 39.9947 136.469 38.8177C135.828 37.6406 135.156 36.4843 134.453 35.3437C133.745 34.2031 133.01 33.0833 132.245 31.9843C131.479 30.8854 130.682 29.8072 129.854 28.7552C129.031 27.6979 128.177 26.6666 127.292 25.6614C126.411 24.651 125.5 23.6718 124.563 22.7135C123.625 21.7552 122.661 20.8229 121.672 19.9218C120.682 19.0156 119.672 18.1406 118.63 17.2916C117.594 16.4479 116.536 15.6249 115.453 14.8385C114.37 14.0468 113.266 13.2916 112.141 12.5624C111.016 11.8333 109.87 11.1354 108.708 10.4739C107.547 9.80723 106.365 9.17702 105.167 8.57807C103.969 7.9739 102.755 7.4114 101.526 6.88015C100.297 6.34369 99.0521 5.8489 97.7969 5.38536C96.5365 4.92182 95.2708 4.48953 93.9896 4.0989C92.7083 3.70307 91.4167 3.3489 90.1146 3.02598C88.8177 2.70307 87.5052 2.41661 86.1927 2.16661C84.875 1.92182 83.5521 1.70827 82.224 1.53119C80.8958 1.35411 79.5625 1.21348 78.2292 1.10932C76.8906 1.01036 75.5521 0.942649 74.2135 0.916608C72.875 0.885357 71.5365 0.895775 70.1979 0.937441C68.8594 0.984316 67.5208 1.06765 66.1875 1.18744C64.8542 1.30723 63.5208 1.46348 62.1979 1.65619C60.8698 1.8489 59.5521 2.07807 58.2396 2.34369C56.9271 2.60932 55.6198 2.9114 54.3229 3.24994C53.026 3.58848 51.7396 3.96348 50.4635 4.37494C49.1875 4.78119 47.9271 5.22911 46.6771 5.70827C45.4219 6.18744 44.1875 6.69786 42.9635 7.24473C41.7396 7.79682 40.5365 8.37494 39.3438 8.98953C38.1563 9.60411 36.9792 10.2499 35.8281 10.9322C34.6719 11.6093 33.5365 12.3229 32.4219 13.0624C31.3073 13.8072 30.2135 14.5781 29.1406 15.3802C28.0677 16.1822 27.0156 17.0156 25.9896 17.8749C24.9635 18.7395 23.9635 19.6249 22.9844 20.5416C22.0052 21.4583 21.0573 22.401 20.1302 23.3697C19.2031 24.3385 18.3073 25.3333 17.4375 26.3541C16.5677 27.3697 15.724 28.4114 14.9115 29.4791C14.099 30.5416 13.3177 31.6301 12.5625 32.7395C11.8125 33.8489 11.0885 34.9739 10.401 36.1249C9.70833 37.2708 9.05208 38.4374 8.42708 39.6249C7.80208 40.8072 7.20833 42.0104 6.65104 43.2291C6.08854 44.4479 5.56771 45.677 5.07292 46.9218C4.58333 48.1718 4.125 49.4322 3.70833 50.7031C3.28646 51.9739 2.90104 53.2551 2.54688 54.552C2.19792 55.8437 1.88542 57.1458 1.60417 58.4583C1.32813 59.7656 1.08854 61.0833 0.880209 62.4062C0.677083 63.7291 0.505208 65.0624 0.375 66.3958C0.244792 67.7291 0.151042 69.0624 0.0937504 70.401C0.0312517 71.7395 0.0104157 73.0781 0.0312504 74.4166C0.0468744 75.7604 0.0989591 77.0989 0.1875 78.4322C0.281251 79.7708 0.406251 81.1041 0.567709 82.4322C0.734375 83.7656 0.932293 85.0885 1.17188 86.4062C1.41146 87.7239 1.68229 89.0364 1.99479 90.3385C2.30208 91.6406 2.65104 92.9374 3.03125 94.2187C3.41146 95.5052 3.82813 96.776 4.28125 98.0416C4.73437 99.302 5.21875 100.547 5.73958 101.781C6.40104 103.344 7.11458 104.875 7.86979 106.375L6.90104 139.948C6.89063 140.401 6.96875 140.833 7.14583 141.25C7.32292 141.667 7.57292 142.031 7.90625 142.338C8.23437 142.646 8.61458 142.875 9.04167 143.016C9.46875 143.161 9.91146 143.213 10.3594 143.167L43.1198 139.875C43.5417 140.062 43.9583 140.25 44.3854 140.427C47.0104 141.536 49.6927 142.49 52.4323 143.286C55.1771 144.078 57.9531 144.708 60.7656 145.177C63.5781 145.646 66.4115 145.948 69.2604 146.078C72.1094 146.213 74.9583 146.177 77.8021 145.979C80.651 145.776 83.474 145.406 86.276 144.87C89.0781 144.338 91.8385 143.641 94.5573 142.781C97.276 141.922 99.9375 140.906 102.536 139.729C105.141 138.557 107.661 137.234 110.104 135.766C110.443 136.609 110.839 137.422 111.297 138.203C111.755 138.99 112.266 139.734 112.833 140.443C113.401 141.151 114.021 141.812 114.688 142.427C115.354 143.042 116.063 143.604 116.818 144.115C117.568 144.62 118.354 145.073 119.172 145.463C119.99 145.854 120.833 146.187 121.698 146.453C122.568 146.719 123.448 146.917 124.349 147.052C125.245 147.187 126.146 147.255 127.057 147.255C128.255 147.255 129.438 147.135 130.615 146.906C131.786 146.672 132.927 146.323 134.036 145.865C135.141 145.406 136.193 144.844 137.188 144.182C138.188 143.516 139.104 142.76 139.953 141.911C140.802 141.062 141.557 140.146 142.224 139.146C142.885 138.151 143.448 137.099 143.906 135.995C144.365 134.885 144.714 133.745 144.948 132.573C145.177 131.396 145.297 130.213 145.297 129.016V74.9895C145.297 74.4947 145.302 73.9999 145.302 73.5051ZM72.6615 109.729C52.6875 109.729 36.4375 93.4791 36.4375 73.5051C36.4375 53.526 52.6875 37.276 72.6615 37.276C92.6406 37.276 108.891 53.526 108.891 73.5051C108.891 93.4791 92.6406 109.729 72.6615 109.729Z" fill="#3AB1FD"/>
</g>
</svg>
