<svg width="185" height="176" viewBox="0 0 185 176" fill="none" xmlns="http://www.w3.org/2000/svg">
<mask id="mask0_9_292" style="mask-type:luminance" maskUnits="userSpaceOnUse" x="0" y="0" width="185" height="176">
<path d="M0.703125 0.833374H184.635V175.469H0.703125V0.833374Z" fill="white"/>
</mask>
<g mask="url(#mask0_9_292)">
<mask id="mask1_9_292" style="mask-type:luminance" maskUnits="userSpaceOnUse" x="0" y="0" width="185" height="176">
<path d="M23.6198 0.833374H161.714C167.792 0.833374 173.625 3.24483 177.922 7.54692C182.219 11.8438 184.635 17.6719 184.635 23.75V152.552C184.635 158.63 182.219 164.458 177.922 168.755C173.625 173.057 167.792 175.469 161.714 175.469H23.6198C17.5417 175.469 11.7135 173.057 7.41667 168.755C3.11458 164.458 0.703125 158.63 0.703125 152.552V23.75C0.703125 17.6719 3.11458 11.8438 7.41667 7.54692C11.7135 3.24483 17.5417 0.833374 23.6198 0.833374Z" fill="white"/>
</mask>
<g mask="url(#mask1_9_292)">
<path d="M0.703125 0.833374H184.635V175.469H0.703125V0.833374Z" fill="#00025D"/>
</g>
</g>
<path fill-rule="evenodd" clip-rule="evenodd" d="M74.099 53.4427H127.411C130.917 53.4427 133.781 56.3229 133.781 59.8281C133.781 63.3385 130.917 66.2031 127.411 66.2031H107.021C103.51 66.2031 100.646 69.0677 100.646 72.5781C100.646 76.0885 103.51 78.9531 107.021 78.9531H122.729C126.24 78.9531 129.104 81.8281 129.104 85.3385C129.104 88.8489 126.24 91.7135 122.729 91.7135H102.865C99.3542 91.7135 96.4792 94.5781 96.4792 98.0885C96.4792 101.594 99.3542 104.474 102.865 104.474H130.813C134.323 104.474 137.203 107.339 137.203 110.849C137.203 114.354 134.323 117.224 130.813 117.224H116.813C113.302 117.224 110.438 120.099 110.438 123.594C110.438 127.104 113.302 129.984 116.813 129.984H125.016C128.521 129.984 131.385 132.849 131.385 136.354C131.385 139.865 128.521 142.729 125.016 142.729H110.891C110.745 142.729 110.615 142.729 110.469 142.719C107.807 142.776 104.667 142.703 100.979 142.703H47.2344C29.125 142.703 23.6563 144.573 27.4271 123.479L39.9427 53.4427H74.099ZM54.1042 58.1927C57.875 58.1927 60.9323 61.2448 60.9323 65.0156C60.9323 68.7916 57.875 71.8437 54.1042 71.8437C50.349 71.8437 47.2917 68.7916 47.2917 65.0156C47.2917 61.2448 50.349 58.1927 54.1042 58.1927ZM94.099 58.1927C97.8698 58.1927 100.922 61.2448 100.922 65.0156C100.922 68.7916 97.8698 71.8437 94.099 71.8437C90.3438 71.8437 87.2865 68.7916 87.2865 65.0156C87.2865 61.2448 90.3438 58.1927 94.099 58.1927Z" fill="#FF66C4"/>
<path fill-rule="evenodd" clip-rule="evenodd" d="M107.474 91.7083H102.87C99.3594 91.7083 96.4844 94.5729 96.4844 98.0833C96.4844 101.594 99.3594 104.469 102.87 104.469H130.818C134.328 104.469 137.208 107.333 137.208 110.844C137.208 114.354 134.328 117.219 130.818 117.219H116.813C113.302 117.219 110.438 120.099 110.438 123.594C110.438 127.104 113.302 129.979 116.813 129.979H125.016C128.521 129.979 131.385 132.844 131.385 136.354C131.385 139.865 128.521 142.729 125.016 142.729H110.891C110.745 142.729 110.615 142.729 110.469 142.714C107.807 142.776 104.667 142.698 100.979 142.698H47.2344C29.125 142.698 23.6563 144.573 27.4271 123.479L39.9427 53.4427C47.1042 89.3854 82.3282 91.7083 107.474 91.7083Z" fill="#CB6CE6"/>
<path fill-rule="evenodd" clip-rule="evenodd" d="M116.026 117.271C112.88 117.651 110.443 120.359 110.443 123.589C110.443 127.094 113.307 129.974 116.813 129.974H125.016C128.526 129.974 131.391 132.839 131.391 136.349C131.391 139.859 128.526 142.724 125.016 142.724H110.896C110.75 142.724 110.615 142.724 110.469 142.708C107.813 142.766 104.667 142.693 100.984 142.693H47.2344C29.125 142.693 23.6563 144.568 27.4271 123.474L39.9427 53.4427C46.0521 101.411 64.4948 117.271 116.026 117.271Z" fill="#8C52FF"/>
<path fill-rule="evenodd" clip-rule="evenodd" d="M116.813 129.979H125.016C128.521 129.979 131.385 132.844 131.385 136.349C131.385 139.859 128.521 142.724 125.016 142.724H110.891C110.745 142.724 110.615 142.724 110.469 142.714C107.807 142.771 104.667 142.698 100.979 142.698H47.2344C29.125 142.698 23.6563 144.568 27.4271 123.474L39.9427 53.4427C38.698 74.0364 36.4063 117.156 60.5521 124.974C80.7657 131.526 116.813 129.979 116.813 129.979Z" fill="#5E17EB"/>
<mask id="mask2_9_292" style="mask-type:luminance" maskUnits="userSpaceOnUse" x="50" y="31" width="48" height="37">
<path d="M50.6667 31.7188H97.3334V68H50.6667V31.7188Z" fill="white"/>
</mask>
<g mask="url(#mask2_9_292)">
<path fill-rule="evenodd" clip-rule="evenodd" d="M72.9064 31.7239H75.3179C87.3491 31.7239 97.172 41.5573 97.172 53.5729C97.172 59.6875 97.172 57.6094 97.172 63.7187C97.172 65.401 95.797 66.7864 94.0991 66.7864C92.4168 66.7864 91.047 65.401 91.047 63.7187C91.047 58.1198 91.047 60.6771 91.047 55.0781C91.047 45.7708 83.4168 38.1562 74.1043 38.1562C64.7918 38.1562 57.1772 45.7708 57.1772 55.0781C57.1772 60.6823 57.1772 58.1041 57.1772 63.7187C57.1772 65.401 55.8075 66.7864 54.1095 66.7864C52.4272 66.7864 51.0522 65.401 51.0522 63.7187C51.0522 57.6094 51.0522 59.6823 51.0522 53.5729C51.0522 41.5573 60.8752 31.7239 72.9064 31.7239Z" fill="#5E17EB"/>
</g>
<path fill-rule="evenodd" clip-rule="evenodd" d="M151.734 53.4427H146.589C143.078 53.4427 140.203 56.3229 140.203 59.8281C140.203 63.3385 143.078 66.2031 146.589 66.2031H151.734C155.24 66.2031 158.104 63.3385 158.104 59.8281C158.104 56.3229 155.24 53.4427 151.734 53.4427Z" fill="#FF66C4"/>
<path fill-rule="evenodd" clip-rule="evenodd" d="M148.151 78.9636H143.005C139.495 78.9636 136.62 81.8281 136.62 85.3386C136.62 88.8438 139.495 91.7084 143.005 91.7084H148.151C151.662 91.7084 154.526 88.8438 154.526 85.3386C154.526 81.8281 151.662 78.9636 148.151 78.9636Z" fill="#FF66C4"/>
<mask id="mask3_9_292" style="mask-type:luminance" maskUnits="userSpaceOnUse" x="142" y="104" width="20" height="14">
<path d="M142.667 104H161.203V117.333H142.667V104Z" fill="white"/>
</mask>
<g mask="url(#mask3_9_292)">
<path fill-rule="evenodd" clip-rule="evenodd" d="M155.297 104.469H150.167C146.656 104.469 143.781 107.333 143.781 110.844C143.781 114.354 146.656 117.219 150.167 117.219H155.297C158.807 117.219 161.688 114.354 161.688 110.844C161.688 107.333 158.807 104.469 155.297 104.469Z" fill="#CB6CE6"/>
</g>
</svg>
